<svg xmlns="http://www.w3.org/2000/svg" xmlns:xlink="http://www.w3.org/1999/xlink" viewBox="0 0 190 122.02"><defs><style>.cls-1{fill:#4c4c4c;}.cls-2{fill:url(#linear-gradient);}.cls-3{fill:url(#linear-gradient-2);}.cls-4{fill:url(#linear-gradient-3);}.cls-5{fill:url(#linear-gradient-4);}.cls-6{fill:url(#linear-gradient-5);}.cls-7{fill:url(#linear-gradient-6);}.cls-8{fill:url(#linear-gradient-7);}.cls-9{fill:url(#linear-gradient-8);}</style><linearGradient id="linear-gradient" x1="49.4" y1="16.95" x2="49.4" y2="-26.05" gradientTransform="translate(16.08 65.97) rotate(-45)" gradientUnits="userSpaceOnUse"><stop offset="0.45" stop-color="#4c4c4c"/><stop offset="0.53" stop-color="#4c4c4c" stop-opacity="0.91"/><stop offset="0.63" stop-color="#4c4c4c" stop-opacity="0.67"/><stop offset="0.76" stop-color="#4c4c4c" stop-opacity="0.28"/><stop offset="0.83" stop-color="#4c4c4c" stop-opacity="0"/><stop offset="1" stop-color="#4c4c4c" stop-opacity="0"/></linearGradient><linearGradient id="linear-gradient-2" x1="100.07" y1="9.53" x2="100.07" y2="-33.47" gradientTransform="translate(58.98 -34.47) rotate(45)" xlink:href="#linear-gradient"/><linearGradient id="linear-gradient-3" x1="113.93" y1="-0.49" x2="113.93" y2="-43.49" gradientTransform="translate(203.22 -1.88) rotate(135)" xlink:href="#linear-gradient"/><linearGradient id="linear-gradient-4" x1="99.21" y1="6.93" x2="99.21" y2="-36.07" gradientTransform="translate(128.25 154.08) rotate(-135)" xlink:href="#linear-gradient"/><linearGradient id="linear-gradient-5" x1="137.95" y1="1.15" x2="137.95" y2="-41.85" gradientTransform="translate(41.85 198.97) rotate(-90)" xlink:href="#linear-gradient"/><linearGradient id="linear-gradient-6" x1="130.71" y1="21.66" x2="130.71" y2="-21.34" gradientTransform="translate(168.66 -69.68) rotate(90)" xlink:href="#linear-gradient"/><linearGradient id="linear-gradient-7" x1="82.22" y1="63.15" x2="82.22" y2="20.15" gradientTransform="translate(9.78 -20.13)" xlink:href="#linear-gradient"/><linearGradient id="linear-gradient-8" x1="149.34" y1="101.15" x2="149.34" y2="58.15" gradientTransform="translate(241.34 180.18) rotate(180)" xlink:href="#linear-gradient"/></defs><g id="Layer_2" data-name="Layer 2"><g id="Layer_1-2" data-name="Layer 1"><path class="cls-1" d="M141,49V73H49V49h92m2-2H47V75h96V47Z"/><path class="cls-1" d="M57.84,54.16c2.43,0,3.94,1,3.94,3.78v1.52c0,2.86-1.09,4-3.94,4h-2v4.61H54.11V54.18Zm-2,1.62v6h2c1.53,0,2.23-.47,2.23-2.37V57.94c0-1.9-.7-2.07-2.23-2.16Z"/><path class="cls-1" d="M69.22,68.06l-.7-2.57H64.36l-.71,2.57H61.87l3.69-13.84h1.75L71,68.06ZM66.43,56.45,65.49,61l-.7,2.9h3.28l-.72-3Z"/><path class="cls-1" d="M78.13,57.6c-.09-1.13-.49-1.94-2.22-1.94-1.92,0-2.3.88-2.3,2.27,0,1.92,1.67,1.9,3.42,2.08,1.6.17,3.26,1,3.26,3.86s-1.14,4.26-4,4.26H76c-2.85,0-4.14-1.38-4.27-3.74h1.86c.09,1.17.61,2.07,2.39,2.07h.34c1.88,0,2.25-.88,2.25-2.5,0-2.27-1.49-2.31-3.22-2.45s-3.47-.92-3.47-3.57S73,54,75.91,54s3.87,1.27,4,3.56Z"/><path class="cls-1" d="M88.33,57.6c-.09-1.13-.48-1.94-2.21-1.94-1.93,0-2.31.88-2.31,2.27,0,1.92,1.68,1.9,3.42,2.08s3.26,1,3.26,3.86-1.13,4.26-4,4.26h-.35c-2.84,0-4.14-1.38-4.26-3.74h1.85c.09,1.17.61,2.07,2.4,2.07h.34c1.87,0,2.25-.88,2.25-2.5,0-2.27-1.5-2.31-3.22-2.45S82,60.59,82,57.94,83.2,54,86.12,54c2.75,0,3.87,1.27,4,3.56Z"/><path class="cls-1" d="M97.75,54.92h1.33l2.38,10.3,1-5.19,1.34-5.87h1.76l-3.31,13.92h-1.57l-1.17-4.66-1.1-5-1.1,5-1.17,4.66H94.58L91.27,54.16H93L94.36,60l1,5.19Z"/><path class="cls-1" d="M115.5,63.51c0,3-.69,4.68-4.51,4.68s-4.5-1.64-4.5-4.68V58.66c0-3,.69-4.68,4.5-4.68s4.51,1.64,4.51,4.68Zm-1.73-4.86c0-2.2-.18-3.1-2.78-3.1s-2.77.9-2.77,3.1v4.88c0,2.19.18,3.06,2.77,3.06s2.78-.87,2.78-3.06Z"/><path class="cls-1" d="M123,62.82l3,5.24h-2l-2.79-5.13h-1.57v5.15h-1.71V54.16l3.73,0c2.43,0,3.94,1,3.94,3.8v1C125.54,61.13,124.87,62.45,123,62.82Zm-3.37-7v5.51h2c1.53,0,2.23-.47,2.23-2.37v-1c0-1.9-.7-2.07-2.23-2.16Z"/><path class="cls-1" d="M127.61,68.06V54.18h4.21c3.71,0,4.38,1.64,4.38,4.65V63.4c0,3-.69,4.7-4.51,4.66Zm4.08-1.64c2.6,0,2.78-.81,2.78-3V58.81c0-2.2-.18-3-2.78-3h-2.37V66.42Z"/><path class="cls-1" d="M121.33,7.38c0-2.86,1.1-4,3.94-4s3.94,1.15,3.94,4V17.72h-1.72V13.13A2.9,2.9,0,0,1,125,14.19c-2.65,0-3.67-1.44-3.67-4Zm6.17,0c0-1.91-.75-2.37-2.23-2.37S123,5.47,123,7.38V10.1c0,2,.7,2.45,2.23,2.45,1.26,0,2.2-.47,2.22-2.38Z"/><path class="cls-1" d="M141.54,3.53h1.81l-3,10.55h-1.71L137.75,11l-.94-4.09-1,4.15-.84,3H133.3l-3-10.55h1.8L133.15,7c.47,1.58.74,3.31,1,4.65.27-1.37.56-2.76,1.05-4.69l1-3.47h1.26l1,3.47c.49,1.93.76,3.32,1,4.69.27-1.34.54-3.07,1-4.65Z"/><path class="cls-1" d="M151.93,11c0,2-1.12,3.17-3.85,3.17s-3.89-1-3.89-3.85V7.24c0-2.76,1.49-3.76,3.89-3.76S152,4.5,152,7.24V9.49h-6.09v.79c0,1.87.68,2.31,2.2,2.31s2.19-.51,2.19-1.59Zm-6.05-3h4.45V7.24c0-1.86-.9-2.25-2.25-2.25s-2.2.38-2.2,2.25Z"/><path class="cls-1" d="M158.66,5.28c-1.66-.27-2.95.41-2.95,2v6.77H154V3.53h1.56l.08,1a2.9,2.9,0,0,1,3-1Z"/><path class="cls-1" d="M160.33,1.69,162,1.5V3.58h1.82V5.2H162v5.91c0,1.06.48,1.55,1.89,1.37v1.58c-2.79.31-3.57-.93-3.57-2.9Z"/><path class="cls-1" d="M169,11.79a43.65,43.65,0,0,1,1.31-5l1-3.28h1.78l-3.3,10.55-.63,2c-.66,2.12-1.83,2.65-3.83,1.84l.31-1.46c.73.3,1.58.47,2-.88l.43-1.5L164.73,3.53h1.87l1,3.38Z"/><path class="cls-1" d="M21.64,120.06H20.09L20,118.64a3,3,0,0,1-2.68,1.51c-2.42,0-3-1.28-3.14-2.52-.18-1.85,1.08-3.18,3.24-3.49a19.69,19.69,0,0,1,2.54-.16v-1c0-1.19-.41-2-2-2-1,0-1.67.34-1.65,1.76H14.58c-.07-2.34,1.15-3.33,3.39-3.33s3.67,1,3.67,3.53Zm-4.12-4.48c-1.17.25-1.79.81-1.66,1.84.07.82.81,1.09,1.59,1.09,1.89,0,2.44-1.38,2.5-3.11A11.53,11.53,0,0,0,17.52,115.58Z"/><path class="cls-1" d="M31.65,116.23c0,2.86-1.1,4-3.94,4s-3.95-1.15-3.95-4V105.89h1.73v4.59A2.88,2.88,0,0,1,28,109.42c2.64,0,3.67,1.44,3.67,4Zm-6.18,0c0,1.91.76,2.37,2.24,2.37s2.23-.46,2.23-2.37v-2.72c0-2-.7-2.45-2.23-2.45-1.27,0-2.2.47-2.22,2.38Z"/><path class="cls-1" d="M41.33,116.5c0,2.77-1.11,3.74-3.85,3.74s-3.94-1.15-3.94-4v-3c0-2.79,1.51-3.84,3.94-3.84s3.74.83,3.85,3.53l-1.62,0c-.07-1.66-.86-2-2.23-2s-2.23.34-2.23,2.25v3c0,1.91.77,2.37,2.23,2.37s2.2-.3,2.23-2.1Z"/><path class="cls-1" d="M50.75,120.06H49.31l-.22-1.38a2.62,2.62,0,0,1-2.61,1.44c-2.11,0-3.57-1-3.57-3.8v-2.78c0-2.84,1.35-4.08,3.57-4.08a2.85,2.85,0,0,1,2.54.92V106h1.73Zm-3.89-9c-1.53,0-2.24.62-2.24,2.47v2.75c0,1.73.71,2.18,2.11,2.18s2.29-.68,2.29-2.75v-2.27C49,111.69,48.39,111.11,46.86,111.11Z"/><path class="cls-1" d="M60.83,117c0,2-1.12,3.17-3.86,3.17s-3.89-1-3.89-3.85v-3.08c0-2.76,1.5-3.76,3.89-3.76s3.89,1,3.89,3.76v2.25H54.78v.79c0,1.87.68,2.31,2.19,2.31s2.2-.51,2.2-1.59Zm-6-3h4.44v-.76c0-1.86-.9-2.25-2.25-2.25s-2.19.38-2.19,2.25Z"/><path class="cls-1" d="M135,120.06h-1.54l-.15-1.42a3,3,0,0,1-2.68,1.51c-2.41,0-3-1.28-3.13-2.52-.18-1.85,1.08-3.18,3.24-3.49a19.69,19.69,0,0,1,2.54-.16v-1c0-1.19-.42-2-2-2-1,0-1.68.34-1.66,1.76h-1.67c-.08-2.34,1.15-3.33,3.38-3.33s3.67,1,3.67,3.53Zm-4.12-4.48c-1.17.25-1.78.81-1.66,1.84.08.82.82,1.09,1.59,1.09,1.89,0,2.45-1.38,2.5-3.11A11.57,11.57,0,0,0,130.84,115.58Z"/><path class="cls-1" d="M144.9,120.06h-1.44l-.22-1.38a2.61,2.61,0,0,1-2.61,1.44c-2.1,0-3.56-1-3.56-3.8v-2.78c0-2.84,1.35-4.08,3.56-4.08a2.83,2.83,0,0,1,2.54.92V106h1.73Zm-3.89-9c-1.53,0-2.23.62-2.23,2.47v2.75c0,1.73.7,2.18,2.11,2.18s2.28-.68,2.28-2.75v-2.27C143.17,111.69,142.54,111.11,141,111.11Z"/><path class="cls-1" d="M147.62,109.53h1.44l.12,1.15a3.66,3.66,0,0,1,5.58,0,3.88,3.88,0,0,1,3.23-1.3c2.3,0,3.56.89,3.56,3.86v6.8h-1.73v-6.84c0-1.55-.81-2.18-2-2.18-1.53,0-2.32.81-2.32,2.68v6.34h-1.73v-6.88c0-1.89-.81-2.17-2.09-2.17a2,2,0,0,0-2.29,2.19v6.86h-1.72Z"/><path class="cls-1" d="M166.08,107.12a1,1,0,0,1-2.07,0A1,1,0,0,1,166.08,107.12Zm-1.9,12.94V109.6h1.71v10.46Z"/><path class="cls-1" d="M168.62,109.53h1.53l.11,1.12a2.89,2.89,0,0,1,2.7-1.25c2.32,0,3.49,1,3.49,3.8v6.86h-1.72v-6.84a2,2,0,0,0-2.06-2.25,2.12,2.12,0,0,0-2.32,2.23v6.86h-1.73Z"/><polygon class="cls-2" points="59.46 36.66 34.01 11.21 31.18 14.03 56.64 39.49 54.52 41.61 63 43.02 61.59 34.54 59.46 36.66"/><path class="cls-1" d="M19,12.6h2.26V1.69H19.5V.16H23V12.6h2.14v1.46H19Z"/><path class="cls-1" d="M26.3,11.33c0-5.89,5.87-4.4,5.87-7.73,0-1.37-.64-2-2.1-2S28,2.29,28,3.89H26.29c0-2.7,1.53-3.89,3.85-3.89S33.9,1.12,33.9,3.58c0,5-5.85,2.81-5.85,7.73v1.06h5.74v1.69H26.3Z"/><path class="cls-1" d="M37.05,10.14c0,1.64.58,2.32,2.09,2.32s2.27-.65,2.27-2.5c0-2-1.1-2.63-2.41-2.63H38V5.82h1a2.53,2.53,0,0,0,2.35-2.29,1.83,1.83,0,0,0-2.07-2c-1.22,0-2.12.56-2.12,2.32H35.54c0-2.5,1.28-3.8,3.76-3.83C41.39,0,43,1.15,43,3.55a3.18,3.18,0,0,1-1.85,3c1.38.54,2.05,1.44,2.05,3.37,0,2.59-1.37,4.19-4.05,4.19s-3.78-1.31-3.78-4Z"/><polygon class="cls-3" points="129.36 39.49 154.82 14.03 151.99 11.21 126.54 36.66 124.41 34.54 123 43.02 131.49 41.61 129.36 39.49"/><polygon class="cls-4" points="126.54 85.39 151.99 110.84 154.82 108.02 129.36 82.56 131.49 80.44 123 79.02 124.41 87.51 126.54 85.39"/><polygon class="cls-5" points="56.64 82.56 31.18 108.02 34.01 110.84 59.46 85.39 61.59 87.51 63 79.02 54.52 80.44 56.64 82.56"/><polygon class="cls-6" points="36 59.02 0 59.02 0 63.02 36 63.02 36 66.02 43 61.02 36 56.02 36 59.02"/><polygon class="cls-7" points="154 63.02 190 63.02 190 59.02 154 59.02 154 56.02 147 61.02 154 66.02 154 63.02"/><polygon class="cls-8" points="94 36.02 94 0.02 90 0.02 90 36.02 87 36.02 92 43.02 97 36.02 94 36.02"/><polygon class="cls-9" points="90 86.02 90 122.02 94 122.02 94 86.02 97 86.02 92 79.02 87 86.02 90 86.02"/></g></g></svg>