<svg xmlns="http://www.w3.org/2000/svg" viewBox="0 0 100 117"><defs><style>.cls-1{fill:#00abd3;}.cls-2{fill:#008dd2;}.cls-3{fill:#fff;}.cls-4{fill:#797979;}.cls-5{fill:#4c4c4c;}</style></defs><g id="Layer_2" data-name="Layer 2"><g id="Layer_1-2" data-name="Layer 1"><path class="cls-1" d="M50,111.34A86.06,86.06,0,0,1,6.46,19.92C23.52,19.56,39.33,14.67,50,6.53c10.67,8.14,26.48,13,43.54,13.39A86.41,86.41,0,0,1,95,35.75,86,86,0,0,1,50,111.34Z"/><path class="cls-2" d="M50,12.65c10.38,6.84,24.28,11.14,39.25,12.09A81,81,0,0,1,50,105.59,81,81,0,0,1,10.75,24.74c15-.95,28.87-5.25,39.25-12.09M50,0C40.4,9,23.6,14.94,4.46,14.94c-.68,0-1.37,0-2,0A91.06,91.06,0,0,0,50,117a91.29,91.29,0,0,0,50-81.24,90.68,90.68,0,0,0-2.41-20.85c-.68,0-1.37,0-2,0C76.4,14.94,59.6,9,50,0Z"/><line class="cls-1" x1="49.79" y1="63.53" x2="48.53" y2="63.53"/><circle class="cls-3" cx="50" cy="55" r="32"/><path class="cls-4" d="M50,87a31.85,31.85,0,0,0,21.7-8.49l-.24-.78L67.2,61.93,66,62a13.23,13.23,0,0,1-7.15-.93,13.16,13.16,0,0,1-2.79-1.87l-.63-.52-.63.51A8.92,8.92,0,0,1,50,61a8.91,8.91,0,0,1-4.87-1.78l-.64-.51-.62.52A13.24,13.24,0,0,1,41,61.1a13.2,13.2,0,0,1-7.14.93l-1.18-.1L28.49,77.74l-.14.86A31.83,31.83,0,0,0,50,87Z"/><path class="cls-5" d="M41.05,61.11h0a13.22,13.22,0,0,1-7.14.94L32.7,62,28.49,77.77l-.14.86A31.83,31.83,0,0,0,47,86.89,39.08,39.08,0,0,0,46,72,72.06,72.06,0,0,0,41.05,61.11Z"/><path class="cls-5" d="M59,61.11h0a13.22,13.22,0,0,0,7.14.94L67.3,62l4.21,15.81.14.86A31.83,31.83,0,0,1,53,86.89,39.08,39.08,0,0,1,54,72,72.06,72.06,0,0,1,59,61.11Z"/><polygon class="cls-1" points="51 66 53 81 50 83 47 81 49 66 48 64 49 62 51 62 52 64 51 66"/><circle class="cls-4" cx="50" cy="45" r="12"/></g></g></svg>