<svg xmlns="http://www.w3.org/2000/svg" viewBox="0 0 62 90"><defs><style>.cls-1{fill:#797979;}.cls-2{fill:#4c4c4c;}</style></defs><g id="Layer_2" data-name="Layer 2"><g id="Layer_1-2" data-name="Layer 1"><path class="cls-1" d="M28.82,8.17A15.76,15.76,0,0,1,31,8h0a16,16,0,0,1,14,8.31l5.81-5.81A24,24,0,0,0,31,0h0a23.79,23.79,0,0,0-8.71,1.64Z"/><path class="cls-1" d="M47,25.66V34h8V24a24,24,0,0,0-.68-5.66Z"/><path class="cls-1" d="M15,24a16,16,0,0,1,5.92-12.42L15.25,5.9A24,24,0,0,0,7,24V34h8Z"/><path class="cls-2" d="M56,34H6a6,6,0,0,0-6,6V77.5C7.33,85.06,18.5,90,31,90s23.67-4.94,31-12.5V40A6,6,0,0,0,56,34ZM22,74l4.31-16.28a8.2,8.2,0,1,1,9.38,0L40,74Z"/></g></g></svg>