<svg xmlns="http://www.w3.org/2000/svg" viewBox="0 0 100 117"><defs><style>.cls-1{fill:#797979;}.cls-2{fill:#4c4c4c;}</style></defs><g id="Layer_2" data-name="Layer 2"><g id="Layer_1-2" data-name="Layer 1"><path class="cls-1" d="M45.86,55l5.65-5.66L57.17,55,60,57.83l8.49-8.49,5.65-5.65L92.37,25.46c-.15-1.2-.32-2.4-.52-3.59C75.64,21.25,60.61,16.61,50,9,40.34,15.93,27,20.39,12.45,21.6Z"/><path class="cls-1" d="M89.66,59.2A83.46,83.46,0,0,0,93,36.15L79.8,49.34Z"/><path class="cls-1" d="M74.14,55l-8.48,8.49L60,69.14l-5.66-5.65-2.83-2.83-5.65,5.65L24.78,87.39A85.23,85.23,0,0,0,50,109.05,84.43,84.43,0,0,0,86.73,67.59Z"/><path class="cls-1" d="M7.39,27.84C7.14,30.47,7,33.11,7,35.75a83.58,83.58,0,0,0,13.09,45L40.2,60.66Z"/><path class="cls-2" d="M18.79,27.93A84.09,84.09,0,0,0,50,17.37c9.87,5.92,22.29,9.8,35.66,11.09.11,1.15.18,2.31.24,3.47L98.5,19.32c-.27-1.48-.57-2.95-.91-4.41-.68,0-1.37,0-2,0C76.4,14.94,59.6,9,50,0,40.62,8.78,24.35,14.65,5.77,14.91Z"/><path class="cls-2" d="M100,35.76q0-3.23-.23-6.39L85.6,43.54a75.41,75.41,0,0,1-1.68,9.93L95.24,64.78A90.55,90.55,0,0,0,100,35.76Z"/><path class="cls-2" d="M25.21,75.65A76.49,76.49,0,0,1,14,35.76c0-.43,0-.85,0-1.27L1.11,21.57A92.11,92.11,0,0,0,0,35.76a90.28,90.28,0,0,0,15.07,50Z"/><path class="cls-2" d="M81.31,62.17a76.75,76.75,0,0,1-7,14.33A78.39,78.39,0,0,1,50,100.89,78.37,78.37,0,0,1,29.82,82.35l-10,10A92.6,92.6,0,0,0,50,117,92.16,92.16,0,0,0,92.05,72.91Z"/></g></g></svg>