<?xml version="1.0" encoding="UTF-8" standalone="no"?>
<svg
   xmlns:dc="http://purl.org/dc/elements/1.1/"
   xmlns:cc="http://creativecommons.org/ns#"
   xmlns:rdf="http://www.w3.org/1999/02/22-rdf-syntax-ns#"
   xmlns:svg="http://www.w3.org/2000/svg"
   xmlns="http://www.w3.org/2000/svg"
   xmlns:sodipodi="http://sodipodi.sourceforge.net/DTD/sodipodi-0.dtd"
   xmlns:inkscape="http://www.inkscape.org/namespaces/inkscape"
   viewBox="0 0 320 64"
   version="1.1"
   id="svg64"
   sodipodi:docname="MitM-H.svg"
   inkscape:version="1.0.2-2 (e86c870879, 2021-01-15)">
  <metadata
     id="metadata68">
    <rdf:RDF>
      <cc:Work
         rdf:about="">
        <dc:format>image/svg+xml</dc:format>
        <dc:type
           rdf:resource="http://purl.org/dc/dcmitype/StillImage" />
      </cc:Work>
    </rdf:RDF>
  </metadata>
  <sodipodi:namedview
     pagecolor="#ffffff"
     bordercolor="#666666"
     borderopacity="1"
     objecttolerance="10"
     gridtolerance="10"
     guidetolerance="10"
     inkscape:pageopacity="0"
     inkscape:pageshadow="2"
     inkscape:window-width="1280"
     inkscape:window-height="953"
     id="namedview66"
     showgrid="false"
     inkscape:zoom="1.696875"
     inkscape:cx="225.06592"
     inkscape:cy="117.33569"
     inkscape:window-x="-8"
     inkscape:window-y="-8"
     inkscape:window-maximized="1"
     inkscape:current-layer="svg64" />
  <defs
     id="defs4">
    <style
       id="style2">.cls-1{fill:#4c4c4c;}.cls-2{fill:#ff484e;}.cls-3{fill:#797979;}.cls-4{fill:#00cad4;}.cls-5{fill:#fefefe;}</style>
  </defs>
  <g
     id="Layer_2"
     data-name="Layer 2">
    <g
       id="Layer_1-2"
       data-name="Layer 1">
      <rect
         class="cls-1"
         x="72"
         y="16"
         width="32"
         height="4"
         id="rect6" />
      <rect
         class="cls-1"
         x="120"
         y="16"
         width="32"
         height="4"
         id="rect8" />
      <rect
         class="cls-1"
         x="168"
         y="16"
         width="32"
         height="4"
         id="rect10"
         style="fill:#ff484e;fill-opacity:1" />
      <rect
         class="cls-1"
         x="216"
         y="16"
         width="32"
         height="4"
         id="rect12"
         style="fill:#ff484e;fill-opacity:1" />
      <rect
         class="cls-1"
         x="72"
         y="40"
         width="16"
         height="4"
         id="rect14"
         style="fill:#ff484e;fill-opacity:1" />
      <rect
         class="cls-1"
         x="96"
         y="40"
         width="32"
         height="4"
         id="rect16"
         style="fill:#ff484e;fill-opacity:1" />
      <rect
         class="cls-1"
         x="144"
         y="40"
         width="32"
         height="4"
         id="rect18" />
      <rect
         class="cls-1"
         x="192"
         y="40"
         width="32"
         height="4"
         id="rect20" />
      <rect
         class="cls-1"
         x="232"
         y="40"
         width="16"
         height="4"
         id="rect22" />
      <circle
         class="cls-2"
         cx="160"
         cy="32"
         r="32"
         id="circle24" />
      <ellipse
         class="cls-1"
         cx="160"
         cy="18"
         rx="15"
         ry="4"
         id="ellipse26" />
      <ellipse
         class="cls-3"
         cx="160"
         cy="16"
         rx="7.5"
         ry="2"
         id="ellipse28" />
      <ellipse
         class="cls-3"
         cx="160"
         cy="10"
         rx="7.5"
         ry="2"
         id="ellipse30" />
      <rect
         class="cls-3"
         x="152.5"
         y="10"
         width="15"
         height="6"
         id="rect32" />
      <ellipse
         class="cls-1"
         cx="165"
         cy="25"
         rx="4"
         ry="2"
         id="ellipse34" />
      <ellipse
         class="cls-1"
         cx="155"
         cy="25"
         rx="4"
         ry="2"
         id="ellipse36" />
      <rect
         class="cls-1"
         x="155"
         y="24"
         width="10"
         height="1"
         id="rect38" />
      <path
         class="cls-3"
         d="M160,64a31.91,31.91,0,0,0,22.25-9,24,24,0,0,0-44.5,0A31.91,31.91,0,0,0,160,64Z"
         id="path40" />
      <path
         class="cls-1"
         d="M160,64A31.84,31.84,0,0,0,179,57.78L172,36s-7,4-12,4-12-4-12-4l-6.95,21.78A31.84,31.84,0,0,0,160,64Z"
         id="path42" />
      <polygon
         class="cls-3"
         points="161 42 163 57 160 59 157 57 159 42 158 40 159 38 161 38 162 40 161 42"
         id="polygon44" />
      <circle
         class="cls-4"
         cx="288"
         cy="32"
         r="32"
         id="circle46" />
      <circle
         class="cls-5"
         cx="288"
         cy="22"
         r="12"
         id="circle48" />
      <path
         class="cls-5"
         d="M288,64a31.91,31.91,0,0,0,22.25-9,24,24,0,0,0-44.5,0A31.91,31.91,0,0,0,288,64Z"
         id="path50" />
      <path
         class="cls-4"
         d="M288,2a30,30,0,1,1-30,30A30,30,0,0,1,288,2m0-2a32,32,0,1,0,32,32A32,32,0,0,0,288,0Z"
         id="path52" />
      <circle
         class="cls-4"
         cx="32"
         cy="32"
         r="32"
         id="circle54" />
      <circle
         class="cls-5"
         cx="32"
         cy="22"
         r="12"
         id="circle56" />
      <path
         class="cls-5"
         d="M32,64a31.91,31.91,0,0,0,22.25-9,24,24,0,0,0-44.5,0A31.91,31.91,0,0,0,32,64Z"
         id="path58" />
      <path
         class="cls-4"
         d="M32,2A30,30,0,1,1,2,32,30,30,0,0,1,32,2m0-2A32,32,0,1,0,64,32,32,32,0,0,0,32,0Z"
         id="path60" />
    </g>
  </g>
</svg>
