<svg xmlns="http://www.w3.org/2000/svg" viewBox="0 0 100 117"><defs><style>.cls-1{fill:#00abd3;}.cls-2{fill:#008dd2;}.cls-3{fill:#fff;}.cls-4{fill:#4c4c4c;}</style></defs><g id="Layer_2" data-name="Layer 2"><g id="Layer_1-2" data-name="Layer 1"><path class="cls-1" d="M50,111.34A86.06,86.06,0,0,1,6.46,19.92C23.52,19.56,39.33,14.67,50,6.53c10.67,8.14,26.48,13,43.54,13.39A86.41,86.41,0,0,1,95,35.75,86,86,0,0,1,50,111.34Z"/><path class="cls-2" d="M50,12.65c10.38,6.84,24.28,11.14,39.25,12.09A81,81,0,0,1,50,105.59,81,81,0,0,1,10.75,24.74c15-.95,28.87-5.25,39.25-12.09M50,0C40.4,9,23.6,14.94,4.46,14.94c-.68,0-1.37,0-2,0A91.06,91.06,0,0,0,50,117a91.29,91.29,0,0,0,50-81.24,90.68,90.68,0,0,0-2.41-20.85c-.68,0-1.37,0-2,0C76.4,14.94,59.6,9,50,0Z"/><circle class="cls-3" cx="50" cy="55" r="24"/><circle class="cls-4" cx="50" cy="47.5" r="9"/><path class="cls-4" d="M50,79a23.88,23.88,0,0,0,16.68-6.76,18,18,0,0,0-33.36,0A23.88,23.88,0,0,0,50,79Z"/></g></g></svg>