<svg xmlns="http://www.w3.org/2000/svg" viewBox="0 0 140 120"><defs><style>.cls-1{fill:#ff484e;}.cls-2{fill:#797979;}.cls-3,.cls-4{fill:#4c4c4c;}.cls-4{opacity:0.6;}</style></defs><g id="Layer_2" data-name="Layer 2"><g id="Layer_1-2" data-name="Layer 1"><polygon class="cls-1" points="70 0 0 120 140 120 70 0"/><path class="cls-2" d="M20,58h92a8,8,0,0,1,8,8v36a8,8,0,0,1-8,8H28a8,8,0,0,1-8-8V58A0,0,0,0,1,20,58Z"/><path class="cls-3" d="M60,58l-8-8H28a8,8,0,0,0-8,8v8H52Z"/><path class="cls-3" d="M82.5,78.5h-25a3,3,0,0,0-3,3v18.75a22.34,22.34,0,0,0,31,0V81.5A3,3,0,0,0,82.5,78.5Zm-17,20,2.16-8.14a4.1,4.1,0,1,1,4.68,0L74.5,98.5Z"/><path class="cls-4" d="M58,73.5v5h4v-5a8,8,0,0,1,8-8h0a8,8,0,0,1,8,8v5h4v-5a12,12,0,0,0-12-12h0A12,12,0,0,0,58,73.5Z"/></g></g></svg>