<svg xmlns="http://www.w3.org/2000/svg" width="200" height="234" viewBox="0 0 200 234">
 <path fill="#00abd3" d="m100 218.11c-53.23-30.09-86-85.61-86-146.6a168.51 168.51 0 0 1 2.3-27.78c32.42-1.22 62.48-10.51 83.7-25.7 21.22 15.19 51.28 24.48 83.7 25.7a168.51 168.51 0 0 1 2.3 27.78c0 60.99-32.77 116.49-86 146.6z"/>
 <path fill="#008dd2" d="m100 34.73c19.73 11.85 44.59 19.61 71.31 22.19q0.69 7.26 0.69 14.59a152.91 152.91 0 0 1-23.44 81.49 156.4 156.4 0 0 1-48.56 48.78 156.4 156.4 0 0 1-48.56-48.78 152.91 152.91 0 0 1-23.44-81.49q0-7.32 0.69-14.59c26.72-2.58 51.58-10.34 71.31-22.19m0-34.73c-19.19 18-52.81 29.87-91.07 29.87-1.38 0-2.74 0-4.1-0.05a181.34 181.34 0 0 0-4.83 41.69c0 70.75 40.6 132.1 100 162.49 59.4-30.39 100-91.74 100-162.49a181.34 181.34 0 0 0-4.83-41.69c-1.36 0-2.72 0.05-4.1 0.05-38.26 0-71.88-11.87-91.07-29.87z"/>
 <path fill="#fefefe" d="m125 104h-1v-10a24 24 0 0 0-24-24 24 24 0 0 0-24 24v10h-1a6 6 0 0 0-6 6v37.61c7.33 7.56 18.5 12.39 31 12.39 12.5 0 23.67-4.83 31-12.39v-37.61a6 6 0 0 0-6-6zm-34 40 4.31-16.28a8.2 8.2 0 1 1 9.38 0l4.31 16.28zm25-40h-32v-10a16 16 0 0 1 16-16 16 16 0 0 1 16 16z"/>
</svg>
