<svg xmlns="http://www.w3.org/2000/svg" viewBox="0 0 96 96"><defs><style>.cls-1{fill:#ff484e;}.cls-2{fill:#797979;}.cls-3{fill:#4c4c4c;}.cls-4{fill:#fefefe;}</style></defs><g id="Layer_2" data-name="Layer 2"><g id="Layer_1-2" data-name="Layer 1"><rect class="cls-1" x="14.06" y="14.06" width="67.88" height="67.88" transform="translate(-19.88 48) rotate(-45)"/><rect class="cls-2" x="14" y="34" width="68" height="48"/><rect class="cls-3" x="14" y="14" width="68" height="20"/><path class="cls-4" d="M42,68a12.65,12.65,0,0,1-4-5.42,21.3,21.3,0,0,1,0-15.24A12.84,12.84,0,0,1,42,42a10.15,10.15,0,0,1,12.1,0,12.84,12.84,0,0,1,4,5.42,21.3,21.3,0,0,1,0,15.24A12.65,12.65,0,0,1,54,68,10.09,10.09,0,0,1,42,68ZM52.16,65.1a10,10,0,0,0,2.73-4.18,18.73,18.73,0,0,0,0-11.84,10,10,0,0,0-2.73-4.18,6.42,6.42,0,0,0-8.32,0,10,10,0,0,0-2.73,4.18,18.73,18.73,0,0,0,0,11.84,10,10,0,0,0,2.73,4.18,6.42,6.42,0,0,0,8.32,0Z"/><path class="cls-4" d="M33.45,27.38c1.11-.94,1.24-2.44,1.26-3.8l.21-5.77h5.26v9.57h1v2.81H39.84V28.64H34.11v1.55H32.84V27.38Zm5.34,0V19.07H36.17l-.1,4.51a6,6,0,0,1-1,3.8Z"/><path class="cls-4" d="M48.23,26.26c0,1.58-.87,2.46-3,2.46s-3-.8-3-3V23.33c0-2.15,1.17-2.93,3-2.93s3,.8,3,2.93v1.75H43.52v.62c0,1.45.53,1.79,1.71,1.79s1.71-.39,1.71-1.23Zm-4.71-2.34H47v-.59c0-1.45-.7-1.75-1.75-1.75s-1.71.29-1.71,1.75Z"/><path class="cls-4" d="M51.15,23.75h3.39V20.5h1.33v8.14H54.54V25H51.15v3.66H49.82V20.5h1.33Z"/><path class="cls-4" d="M58.82,23h1.43c1.85,0,2.91.74,2.91,2.82s-.74,2.81-2.91,2.81H57.48V20.5h1.34Zm1.43,4.41c1.26,0,1.58-.46,1.58-1.59s-.29-1.63-1.58-1.63H58.82v3.22Z"/></g></g></svg>