<svg xmlns="http://www.w3.org/2000/svg" viewBox="0 0 36 72"><defs><style>.cls-1{fill:#ff484e;}.cls-2{fill:#4c4c4c;}</style></defs><g id="Layer_2" data-name="Layer 2"><g id="Layer_1-2" data-name="Layer 1"><rect class="cls-1" x="1" y="7" width="34" height="58"/><path class="cls-2" d="M34,8V64H2V8H34m2-2H0V66H36V6Z"/><polygon class="cls-2" points="18 72 0 66 0 6 18 0 18 72"/><path class="cls-2" d="M6,35H6a6,6,0,0,0,6,6h0v4a2,2,0,0,0,2,2h8a2,2,0,0,0,2-2V41h0a6,6,0,0,0,6-6h0A10,10,0,0,0,20,25H16A10,10,0,0,0,6,35Z"/><circle class="cls-1" cx="12.5" cy="34.5" r="3.5"/><circle class="cls-1" cx="23.5" cy="34.5" r="3.5"/><polygon class="cls-1" points="15 41 18 36 21 41 15 41"/></g></g></svg>