<svg xmlns="http://www.w3.org/2000/svg" xmlns:xlink="http://www.w3.org/1999/xlink" viewBox="0 0 142 142"><defs><style>.cls-1{fill:#4c4c4c;}.cls-2{fill:#797979;}.cls-3{fill:#ff484e;}.cls-4{fill:url(#linear-gradient);}.cls-5{fill:url(#linear-gradient-2);}.cls-6{fill:url(#linear-gradient-3);}.cls-7{fill:url(#linear-gradient-4);}.cls-8{fill:url(#linear-gradient-5);}.cls-9{fill:url(#linear-gradient-6);}.cls-10{fill:url(#linear-gradient-7);}.cls-11{fill:url(#linear-gradient-8);}</style><linearGradient id="linear-gradient" x1="-1323.05" y1="408.12" x2="-1323.05" y2="365.12" gradientTransform="translate(-365.13 -1252.06) rotate(-90)" gradientUnits="userSpaceOnUse"><stop offset="0.45" stop-color="#ff484e"/><stop offset="0.49" stop-color="#ff484e" stop-opacity="0.97"/><stop offset="0.53" stop-color="#ff484e" stop-opacity="0.9"/><stop offset="0.59" stop-color="#ff484e" stop-opacity="0.78"/><stop offset="0.65" stop-color="#ff484e" stop-opacity="0.62"/><stop offset="0.72" stop-color="#ff484e" stop-opacity="0.41"/><stop offset="0.79" stop-color="#ff484e" stop-opacity="0.16"/><stop offset="0.83" stop-color="#ff484e" stop-opacity="0"/><stop offset="1" stop-color="#4c4c4c" stop-opacity="0"/></linearGradient><linearGradient id="linear-gradient-2" x1="-266.29" y1="-1381.36" x2="-266.29" y2="-1424.36" gradientTransform="translate(-1282.36 337.29) rotate(90)" xlink:href="#linear-gradient"/><linearGradient id="linear-gradient-3" x1="61.22" y1="63.13" x2="61.22" y2="20.13" gradientTransform="translate(9.78 -20.13)" xlink:href="#linear-gradient"/><linearGradient id="linear-gradient-4" x1="-1687.66" y1="-962.87" x2="-1687.66" y2="-1005.87" gradientTransform="translate(-1616.66 -863.87) rotate(180)" xlink:href="#linear-gradient"/><linearGradient id="linear-gradient-5" x1="-1323.06" y1="400.13" x2="-1323.06" y2="357.13" gradientTransform="translate(698.15 -1172.93) rotate(-45)" xlink:href="#linear-gradient"/><linearGradient id="linear-gradient-6" x1="-266.29" y1="-1389.36" x2="-266.29" y2="-1432.36" gradientTransform="translate(-1074.27 -697.67) rotate(135)" xlink:href="#linear-gradient"/><linearGradient id="linear-gradient-7" x1="61.22" y1="55.13" x2="61.22" y2="12.13" gradientTransform="translate(92.15 -36.73) rotate(45)" xlink:href="#linear-gradient"/><linearGradient id="linear-gradient-8" x1="-1687.66" y1="-970.87" x2="-1687.66" y2="-1013.87" gradientTransform="translate(-461.3 -1783.41) rotate(-135)" xlink:href="#linear-gradient"/></defs><g id="Layer_2" data-name="Layer 2"><g id="Layer_1-2" data-name="Layer 1"><rect class="cls-1" x="47" y="47" width="48" height="16" rx="4"/><rect class="cls-2" x="47" y="63" width="48" height="16" rx="4"/><rect class="cls-1" x="47" y="79" width="48" height="16" rx="4"/><circle class="cls-3" cx="55" cy="55" r="4"/><circle class="cls-3" cx="55" cy="71" r="4.5"/><path class="cls-1" d="M55,67a4,4,0,1,1-4,4,4,4,0,0,1,4-4m0-1a5,5,0,1,0,5,5,5,5,0,0,0-5-5Z"/><circle class="cls-3" cx="55" cy="87" r="4"/><rect class="cls-2" x="85" y="51" width="2" height="8"/><rect class="cls-2" x="82" y="51" width="2" height="8"/><rect class="cls-2" x="88" y="51" width="2" height="8"/><rect class="cls-2" x="85" y="83" width="2" height="8"/><rect class="cls-2" x="82" y="83" width="2" height="8"/><rect class="cls-2" x="88" y="83" width="2" height="8"/><rect class="cls-1" x="85" y="67" width="2" height="8"/><rect class="cls-1" x="82" y="67" width="2" height="8"/><rect class="cls-1" x="88" y="67" width="2" height="8"/><polygon class="cls-4" points="36 69 0 69 0 73 36 73 36 76 43 71 36 66 36 69"/><polygon class="cls-5" points="106 73 142 73 142 69 106 69 106 66 99 71 106 76 106 73"/><polygon class="cls-6" points="73 36 73 0 69 0 69 36 66 36 71 43 76 36 73 36"/><polygon class="cls-7" points="69 106 69 142 73 142 73 106 76 106 71 99 66 106 69 106"/><polygon class="cls-8" points="42.01 39.18 16.55 13.72 13.72 16.55 39.18 42.01 37.06 44.13 45.54 45.54 44.13 37.06 42.01 39.18"/><polygon class="cls-9" points="99.99 102.82 125.45 128.28 128.28 125.45 102.82 99.99 104.94 97.87 96.46 96.46 97.87 104.94 99.99 102.82"/><polygon class="cls-10" points="102.82 42.01 128.28 16.55 125.45 13.72 99.99 39.18 97.87 37.06 96.46 45.54 104.94 44.13 102.82 42.01"/><polygon class="cls-11" points="39.18 99.99 13.72 125.45 16.55 128.28 42.01 102.82 44.13 104.94 45.54 96.46 37.06 97.87 39.18 99.99"/></g></g></svg>