<svg xmlns="http://www.w3.org/2000/svg" xmlns:xlink="http://www.w3.org/1999/xlink" viewBox="0 0 42 102"><defs><style>.cls-1{fill:url(#linear-gradient);}.cls-2{fill:#797979;}.cls-3{fill:#4c4c4c;}</style><linearGradient id="linear-gradient" x1="13.33" y1="45.33" x2="46.33" y2="12.33" gradientUnits="userSpaceOnUse"><stop offset="0.45" stop-color="#4c4c4c"/><stop offset="0.53" stop-color="#4c4c4c" stop-opacity="0.91"/><stop offset="0.63" stop-color="#4c4c4c" stop-opacity="0.67"/><stop offset="0.76" stop-color="#4c4c4c" stop-opacity="0.28"/><stop offset="0.83" stop-color="#4c4c4c" stop-opacity="0"/><stop offset="1" stop-color="#4c4c4c" stop-opacity="0"/></linearGradient></defs><g id="Layer_2" data-name="Layer 2"><g id="Layer_1-2" data-name="Layer 1"><path class="cls-1" d="M30,0V50a4,4,0,0,1-4,4,2,2,0,0,1,0,4,8,8,0,0,0,8-8V0Z"/><polygon class="cls-2" points="0 44 0 102 42 102 42 58 28 44 0 44"/><circle class="cls-3" cx="26" cy="56" r="2"/><path class="cls-3" d="M24,56a2,2,0,0,1,2-2,4,4,0,0,1-4-4V46h4l-8-8V50a8,8,0,0,0,8,8A2,2,0,0,1,24,56Z"/></g></g></svg>