<svg xmlns="http://www.w3.org/2000/svg" viewBox="0 0 104 74"><defs><style>.cls-1{fill:#ff484e;}.cls-2{fill:#4c4c4c;}.cls-3{fill:#797979;}</style></defs><g id="Layer_2" data-name="Layer 2"><g id="Layer_1-2" data-name="Layer 1"><rect class="cls-1" x="13" y="1" width="78" height="42"/><path class="cls-2" d="M90,2V42H14V2H90m2-2H12V44H92V0Z"/><polygon class="cls-2" points="104 74 0 74 12 44 92 44 104 74"/><polygon class="cls-3" points="101 72 3 72 14.31 44 89.69 44 101 72"/><circle class="cls-2" cx="52" cy="22" r="10"/><rect class="cls-2" x="50" y="8" width="4" height="28"/><rect class="cls-2" x="50" y="8" width="4" height="28" transform="translate(30 74) rotate(-90)"/><rect class="cls-2" x="50" y="8" width="4" height="28" transform="translate(-0.33 43.21) rotate(-45)"/><rect class="cls-2" x="50" y="8" width="4" height="28" transform="translate(73.21 74.33) rotate(-135)"/><circle class="cls-1" cx="52" cy="22" r="6"/></g></g></svg>