<svg xmlns="http://www.w3.org/2000/svg" viewBox="0 0 134 72"><defs><style>.cls-1{fill:#4c4c4c;}.cls-2{fill:#797979;}.cls-3{fill:#fefefe;}.cls-4{fill:#ff484e;}</style></defs><g id="Layer_2" data-name="Layer 2"><g id="Layer_1-2" data-name="Layer 1"><rect class="cls-1" y="54" width="48" height="9"/><ellipse class="cls-1" cx="24" cy="63" rx="24" ry="9"/><rect class="cls-2" y="45" width="48" height="9"/><ellipse class="cls-2" cx="24" cy="54" rx="24" ry="9"/><rect class="cls-1" y="36" width="48" height="9"/><ellipse class="cls-1" cx="24" cy="45" rx="24" ry="9"/><rect class="cls-2" y="27" width="48" height="9"/><ellipse class="cls-2" cx="24" cy="36" rx="24" ry="9"/><rect class="cls-1" y="18" width="48" height="9"/><ellipse class="cls-1" cx="24" cy="27" rx="24" ry="9"/><rect class="cls-2" y="9" width="48" height="9"/><ellipse class="cls-2" cx="24" cy="18" rx="24" ry="9"/><ellipse class="cls-1" cx="24" cy="9" rx="24" ry="9"/><path class="cls-3" d="M13.86,31.44c-.12-1.51-.65-2.59-2.95-2.59-2.57,0-3.07,1.17-3.07,3,0,2.57,2.23,2.55,4.56,2.79,2.13.21,4.34,1.27,4.34,5.13s-1.51,5.69-5.33,5.69H11c-3.8,0-5.52-1.85-5.69-5H7.74c.12,1.56.82,2.76,3.19,2.76h.46c2.5,0,3-1.18,3-3.34,0-3-2-3.07-4.3-3.26-2.16-.17-4.63-1.23-4.63-4.75S7,26.69,10.91,26.69c3.67,0,5.16,1.7,5.33,4.75Z"/><path class="cls-3" d="M31.24,39.19c0,3.24-.58,5.31-3.43,6,.12,1.63.72,2.81,3.21,2.5v2c-3.53.28-5.4-1.06-5.5-4.28h-.28c-5.09,0-6-2.18-6-6.24V32.88c0-4.06.91-6.24,6-6.24s6,2.18,6,6.24Zm-2.31-6.33c0-2.93-.24-4.08-3.69-4.08s-3.7,1.15-3.7,4.08v6.36c0,2.92.24,4.08,3.7,4.08s3.69-1.16,3.69-4.08Z"/><path class="cls-3" d="M34.36,45.38V26.88h2.3V43.27h7.22v2.11Z"/><path class="cls-4" d="M61,37.5H41a1,1,0,0,0,0,2H61Z"/><polygon class="cls-1" points="69 32.5 59 37.5 59 39.5 69 44.5 109 44.5 109 32.5 69 32.5"/><ellipse class="cls-1" cx="59" cy="38.5" rx="0.5" ry="1"/><ellipse class="cls-2" cx="107" cy="38.5" rx="1" ry="6"/><ellipse class="cls-2" cx="109.5" cy="38.5" rx="1.5" ry="8"/><rect class="cls-2" x="107" y="33.5" width="11" height="10"/><ellipse class="cls-2" cx="118" cy="38.5" rx="2" ry="10"/><ellipse class="cls-2" cx="132" cy="38.5" rx="2" ry="8"/><polygon class="cls-2" points="132 42.5 118 43.5 118 33.5 132 34.5 132 42.5"/><rect class="cls-2" x="107" y="32.5" width="2" height="12"/></g></g></svg>