<svg xmlns="http://www.w3.org/2000/svg" viewBox="0 0 56 48"><defs><style>.cls-1{fill:#ff484e;}.cls-2{fill:#4c4c4c;}</style></defs><g id="Layer_2" data-name="Layer 2"><g id="Layer_1-2" data-name="Layer 1"><polygon class="cls-1" points="28 48 0 0 56 0 28 48"/><path class="cls-2" d="M16,15h0a6,6,0,0,0,6,6h0v4a2,2,0,0,0,2,2h8a2,2,0,0,0,2-2V21h0a6,6,0,0,0,6-6h0A10,10,0,0,0,30,5H26A10,10,0,0,0,16,15Z"/><circle class="cls-1" cx="22.5" cy="14.5" r="3.5"/><circle class="cls-1" cx="33.5" cy="14.5" r="3.5"/><polygon class="cls-1" points="25 21 28 16 31 21 25 21"/></g></g></svg>