<svg xmlns="http://www.w3.org/2000/svg" viewBox="0 0 56 56"><defs><style>.cls-1{fill:#ff484e;}.cls-2{fill:#4c4c4c;}</style></defs><g id="Layer_2" data-name="Layer 2"><g id="Layer_1-2" data-name="Layer 1"><rect class="cls-1" x="8.46" y="7.94" width="39.08" height="40.12" transform="translate(-11.6 28) rotate(-45)"/><path class="cls-2" d="M16,27h0a6,6,0,0,0,6,6h0v4a2,2,0,0,0,2,2h8a2,2,0,0,0,2-2V33h0a6,6,0,0,0,6-6h0A10,10,0,0,0,30,17H26A10,10,0,0,0,16,27Z"/><circle class="cls-1" cx="22.5" cy="26.5" r="3.5"/><circle class="cls-1" cx="33.5" cy="26.5" r="3.5"/><polygon class="cls-1" points="25 33 28 28 31 33 25 33"/></g></g></svg>