<svg xmlns="http://www.w3.org/2000/svg" viewBox="0 0 128 84"><defs><style>.cls-1{fill:#4c4c4c;}.cls-2{fill:#ff484e;}.cls-3{fill:#797979;}</style></defs><g id="Layer_2" data-name="Layer 2"><g id="Layer_1-2" data-name="Layer 1"><circle class="cls-1" cx="120" cy="8" r="8"/><path class="cls-2" d="M84,8a18,18,0,0,0-6,35V26a6,6,0,0,1,12,0V43h12V26A18,18,0,0,0,84,8Z"/><path class="cls-3" d="M22,32h92a8,8,0,0,1,8,8V76a8,8,0,0,1-8,8H30a8,8,0,0,1-8-8V32A0,0,0,0,1,22,32Z"/><path class="cls-1" d="M62,32l-8-8H30a8,8,0,0,0-8,8v8H54Z"/><circle class="cls-2" cx="8" cy="58" r="6"/><circle class="cls-1" cx="72" cy="58" r="8"/><circle class="cls-2" cx="72" cy="58" r="6"/><rect class="cls-2" x="66" y="26" width="12" height="32"/><circle class="cls-2" cx="120" cy="8" r="6"/><circle class="cls-1" cx="40" cy="58" r="8"/><circle class="cls-2" cx="40" cy="58" r="6"/><rect class="cls-2" x="18" y="42" width="12" height="32" transform="translate(82 34) rotate(90)"/><path class="cls-2" d="M114,15.05V32a6,6,0,0,1-12,0H90a18,18,0,1,0,24-16.95Z"/><rect class="cls-2" x="114" y="8" width="12" height="24"/><circle class="cls-2" cx="8" cy="58" r="8"/></g></g></svg>